<?xml version="1.0" encoding="UTF-8" standalone="no"?>
<svg
   xmlns:dc="http://purl.org/dc/elements/1.1/"
   xmlns:cc="http://creativecommons.org/ns#"
   xmlns:rdf="http://www.w3.org/1999/02/22-rdf-syntax-ns#"
   xmlns:svg="http://www.w3.org/2000/svg"
   xmlns="http://www.w3.org/2000/svg"
   xmlns:xlink="http://www.w3.org/1999/xlink"
   version="1.1"
   viewBox="0 0 1088.4639 795.47302"
   height="795.47302"
   width="1088.4639"
   data-name="Layer 1"
   id="e2165270-d70d-4354-9ac9-1848d055b0c2">
  <metadata
     id="metadata1559">
    <rdf:RDF>
      <cc:Work
         rdf:about="">
        <dc:format>image/svg+xml</dc:format>
        <dc:type
           rdf:resource="http://purl.org/dc/dcmitype/StillImage" />
        <dc:title>Designer</dc:title>
      </cc:Work>
    </rdf:RDF>
  </metadata>
  <defs
     id="defs1490">
    <linearGradient
       gradientUnits="userSpaceOnUse"
       y2="646.78455"
       x2="979.4455"
       y1="738.5899"
       x1="979.4455"
       id="afa9b5ae-644d-481c-a512-b5b81b77e42b">
      <stop
         id="stop1481"
         stop-opacity="0.25"
         stop-color="gray"
         offset="0" />
      <stop
         id="stop1483"
         stop-opacity="0.12"
         stop-color="gray"
         offset="0.53514" />
      <stop
         id="stop1485"
         stop-opacity="0.1"
         stop-color="gray"
         offset="1" />
    </linearGradient>
    <linearGradient
       xlink:href="#afa9b5ae-644d-481c-a512-b5b81b77e42b"
       y2="119"
       x2="600.65161"
       y1="650.10522"
       x1="600.65161"
       id="bf9220ea-365d-417c-960f-9ff5535a2d22" />
    <linearGradient
       xlink:href="#afa9b5ae-644d-481c-a512-b5b81b77e42b"
       y2="377.70425"
       x2="485.72021"
       y1="615.59839"
       x1="485.72021"
       id="b4202d31-0de8-4369-b735-813ee4300deb" />
    <linearGradient
       y2="646.78455"
       x2="979.4455"
       y1="738.5899"
       x1="979.4455"
       gradientUnits="userSpaceOnUse"
       id="linearGradient3535"
       xlink:href="#afa9b5ae-644d-481c-a512-b5b81b77e42b" />
  </defs>
  <title
     id="title1492">Designer</title>
  <path
     id="path1561"
     d="m 33.422183,447.30132 c 0,0 87.635057,-68.68695 78.160997,-170.5331 -9.47406,-101.84615 78.16101,-132.63685 78.16101,-132.63685 0,0 97.10912,-16.57961 111.32021,-85.266545 14.21109,-68.686942 125.53131,-52.1073321 125.53131,-52.1073321 0,0 80.52951,2.36851 94.7406,45.0017901 14.21109,42.63327 111.32022,-11.84258 111.32022,-11.84258 0,0 78.161,-80.52952 137.37388,4.73703 59.21288,85.266547 177.63864,85.266547 177.63864,85.266547 0,0 85.26655,-4.73703 113.68865,63.94991 28.4222,68.68694 21.3167,142.11091 21.3167,142.11091 l -2.3685,459.49195 H 5 V 456.77538 c 0,0 9.474061,9.47406 28.422183,-9.47406 z"
     style="opacity:1;fill:#ffffff;stroke:none;stroke-width:1.00157475;stroke-linecap:butt;stroke-linejoin:miter;stroke-miterlimit:4;stroke-dasharray:none;stroke-opacity:1" />
  <path
     style="opacity:0.87699998;fill:#f9a826;fill-opacity:1"
     id="path1494"
     d="m 201.52107,620.06954 c -6.98452,26.59789 -31.459,43.21966 -31.459,43.21966 0,0 -13.15033,-26.50193 -6.16581,-53.09982 6.98452,-26.59789 31.459,-43.21966 31.459,-43.21966 0,0 13.15033,26.50193 6.16581,53.09982 z" />
  <path
     style="fill:#f9a826;fill-opacity:1"
     id="path1496"
     d="m 190.92714,614.44283 c -19.56251,19.32716 -21.75117,48.83128 -21.75117,48.83128 0,0 29.52845,-1.83141 49.091,-21.15858 19.56255,-19.32717 21.75116,-48.83129 21.75116,-48.83129 0,0 -29.52851,1.83142 -49.09099,21.15859 z" />
  <rect
     style="fill:#f9a826;fill-opacity:1"
     id="rect1498"
     rx="15.19753"
     height="45.496181"
     width="106.91603"
     y="655.50134"
     x="123.74043" />
  <g
     transform="translate(55.686941,82.260173)"
     style="opacity:0.7"
     id="g1502">
    <path
       style="fill:url(#linearGradient3535)"
       id="path1500"
       transform="translate(-114.2798,-119)"
       d="M 1009.7741,663.17837 V 646.78456 H 927.805 V 722.606 a 15.984,15.984 0 0 0 15.984,15.984 h 50.00113 a 15.984,15.984 0 0 0 15.98397,-15.984 v -16.80371 a 21.312,21.312 0 0 0 0,-42.62392 z m 0,34.427 v -26.2301 a 13.11505,13.11505 0 0 1 0,26.2301 z" />
  </g>
  <path
     style="fill:#6c63ff"
     id="path1504"
     d="m 948.54394,629.00453 a 19.45875,19.45875 0 1 0 19.4588,19.45874 19.45877,19.45877 0 0 0 -19.4588,-19.45874 z m 0,31.43336 a 11.97462,11.97462 0 1 1 11.9746,-11.97462 11.97462,11.97462 0 0 1 -11.9746,11.97462 z" />
  <path
     style="opacity:0.1"
     id="path1506"
     d="m 948.54394,629.00453 a 19.45875,19.45875 0 1 0 19.4588,19.45874 19.45877,19.45877 0 0 0 -19.4588,-19.45874 z m 0,31.43336 a 11.97462,11.97462 0 1 1 11.9746,-11.97462 11.97462,11.97462 0 0 1 -11.9746,11.97462 z" />
  <path
     style="fill:#f9a826;fill-opacity:1"
     id="path1508"
     d="m 873.70263,614.03626 h 74.84131 v 74.07228 a 9.75,9.75 0 0 1 -9.75,9.75 h -55.34131 a 9.75,9.75 0 0 1 -9.75,-9.75 z" />
  <rect
     style="fill:#e0e0e0"
     x="55.686939"
     id="rect1510"
     height="32.93018"
     width="971.44043"
     y="697.85858" />
  <g
     transform="translate(55.686941,82.260173)"
     style="opacity:0.7"
     id="g1514">
    <path
       style="fill:url(#bf9220ea-365d-417c-960f-9ff5535a2d22)"
       id="path1512"
       transform="translate(-114.2798,-119)"
       d="m 753.24926,514.26464 c -10.41165,-37.79179 -69.43785,-65.38862 -113.8507,-71.50773 0.006,-0.27882 0.0211,-0.55536 0.0211,-0.83569 V 409.571 c 0.0473,-0.0173 0.0958,-0.0318 0.143,-0.0493 v -1.22615 a 110.93933,110.93933 0 0 0 67.01046,-70.2316 119.882,119.882 0 0 0 7.14989,-15.41561 c 4.74115,-1.72629 8.322,-9.54462 8.322,-18.93884 a 33.06945,33.06945 0 0 0 -1.3381,-9.49537 121.52779,121.52779 0 0 0 0.88891,-14.41912 120.17944,120.17944 0 0 0 -39.6966,-89.38228 23.44841,23.44841 0 0 0 0.37522,-5.87723 c -1.00473,-15.52708 -17.58929,-26.07586 -33.13284,-26.78142 a 32.8005,32.8005 0 0 0 5.53147,-34.63658 c -9.91113,14.43929 -30.25853,15.97418 -47.77168,16.08774 7.55675,-2.9265 10.95734,-13.39715 6.56225,-20.20525 -18.30375,24.53386 -53.985,29.07689 -75.75576,50.59371 a 63.8633,63.8633 0 0 0 -11.77976,16.06661 120.24089,120.24089 0 0 0 -45.31946,94.1347 121.55587,121.55587 0 0 0 0.87233,14.28918 32.96391,32.96391 0 0 0 -1.38014,9.62531 c 0,9.43741 3.61453,17.27988 8.38807,18.95778 a 119.88387,119.88387 0 0 0 7.18266,15.46665 110.91725,110.91725 0 0 0 66.54128,69.98516 v 33.80212 c 0,0.26025 0.0145,0.51691 0.0196,0.77593 -44.58123,6.01408 -104.079,33.82817 -114.39809,71.92387 -8.91132,32.89854 -18.42365,69.02824 -23.15665,90.24078 40.56827,28.50553 125.69315,45.24341 179.04119,45.24341 50.6869,0 133.53278,-15.10715 172.90663,-41.06339 -4.26491,-23.30786 -14.07735,-61.02406 -23.3763,-94.77722 z" />
  </g>
  <path
     style="fill:#f9a826;fill-opacity:1"
     id="path1516"
     d="m 545.01762,603.98176 c 48.89581,0 128.8143,-14.57335 166.79676,-39.61233 -4.11411,-22.48424 -13.57985,-58.86769 -22.55024,-91.42816 -11.42431,-41.46766 -83.52767,-70.216 -126.54025,-70.216 h -41.4486 c -43.1459,0 -115.35328,28.91469 -126.6338,70.55985 -8.5964,31.736 -17.77266,66.589 -22.33837,87.05194 39.1347,27.49829 121.25159,43.6447 172.7145,43.6447 z" />
  <circle
     style="fill:#72351c"
     id="circle1518"
     r="116.23581"
     cy="246.757"
     cx="542.49341" />
  <path
     style="opacity:0.1"
     id="path1520"
     d="m 504.97828,343.57133 h 74.47866 v 59.58294 a 37.23927,37.23927 0 0 1 -37.23927,37.23927 h -7e-5 a 37.23927,37.23927 0 0 1 -37.23927,-37.23927 v -59.58294 z" />
  <path
     style="fill:#fda57d"
     id="path1522"
     d="m 515.66127,340.81286 h 53.11267 a 10.683,10.683 0 0 1 10.683,10.683 v 48.89994 a 37.23927,37.23927 0 0 1 -37.23927,37.23927 h -7e-5 A 37.23927,37.23927 0 0 1 504.97833,400.3958 v -48.89995 a 10.683,10.683 0 0 1 10.68294,-10.68299 z" />
  <path
     style="opacity:0.1"
     id="path1524"
     d="m 505.1162,371.69383 a 107.19075,107.19075 0 0 0 74.47862,0.20587 v -9.14914 H 505.1162 Z" />
  <circle
     style="fill:#fda57d"
     id="circle1526"
     r="106.75269"
     cy="269.92813"
     cx="542.49341" />
  <path
     style="opacity:0.1"
     id="path1528"
     d="m 466.45327,172.82505 c 0,0 44.98987,91.32263 171.90142,38.27492 l -29.54555,-46.3328 -52.37621,-18.80172 z" />
  <path
     style="fill:#72351c"
     id="path1530"
     d="m 466.45327,171.48207 c 0,0 44.98982,91.32263 171.90142,38.27492 l -29.54555,-46.33282 -52.37622,-18.8017 z" />
  <path
     style="fill:#72351c"
     id="path1532"
     d="m 466.05377,165.31237 a 61.66959,61.66959 0 0 1 15.28543,-24.86262 c 21.00146,-20.75652 55.42186,-25.13895 73.07881,-48.805937 4.23984,6.56758 0.95939,16.668217 -6.33032,19.491277 16.89431,-0.10957 36.52273,-1.59016 46.08358,-15.519247 a 31.6415,31.6415 0 0 1 -5.336,33.412697 c 14.99426,0.68059 30.99283,10.85661 31.962,25.835 0.64565,9.97871 -5.6112,19.42651 -13.81131,25.14924 -8.20011,5.72273 -18.12112,8.34985 -27.88617,10.50284 -28.50507,6.28476 -131.64649,32.62665 -113.04602,-25.20325 z" />
  <path
     style="fill:#72351c"
     id="path1534"
     d="m 649.24279,270.86258 h -2.83022 l -55.06218,49.01876 c -53.0477,-24.84513 -91.99411,0 -91.99411,0 l -57.74814,-47.00429 -5.82291,0.73165 a 106.75011,106.75011 0 0 0 213.45756,-2.74612 z m -106.91116,67.82048 c -20.76778,0 -37.60344,-4.209 -37.60344,-9.40086 0,-5.19186 16.83566,-9.40086 37.60344,-9.40086 20.76778,0 37.60344,4.20894 37.60344,9.40086 0,5.19192 -16.83566,9.40086 -37.60344,9.40086 z" />
  <ellipse
     style="fill:#fda57d"
     id="ellipse1536"
     ry="18.619659"
     rx="9.93048"
     cy="269.82642"
     cx="435.69827" />
  <ellipse
     style="fill:#fda57d"
     id="ellipse1538"
     ry="18.619659"
     rx="9.93048"
     cy="269.82642"
     cx="649.23206" />
  <g
     transform="translate(55.686941,82.260173)"
     style="opacity:0.7"
     id="g1542">
    <rect
       style="fill:url(#b4202d31-0de8-4369-b735-813ee4300deb)"
       id="rect1540"
       rx="14.5"
       height="237.89413"
       width="413.12411"
       y="377.70425"
       x="279.15814" />
  </g>
  <rect
     style="fill:#535461"
     id="rect1544"
     rx="26.835051"
     height="233.50494"
     width="398.15585"
     y="464.35361"
     x="342.32922" />
  <circle
     style="fill:#ffffff"
     id="circle1546"
     r="13.47144"
     cy="581.10608"
     cx="541.40717" />
  <rect
     style="fill:#e0e0e0"
     id="rect1548"
     height="13.47144"
     width="889.11493"
     y="730.78876"
     x="96.84967" />
  <rect
     style="opacity:0.1"
     id="rect1550"
     height="4.4904799"
     width="889.11493"
     y="730.78876"
     x="96.84967" />
  <path
     style="opacity:0.1"
     id="path1552"
     d="m 935.07251,614.03626 v 69.22823 a 14.59407,14.59407 0 0 1 -14.59405,14.59406 h 7.48413 a 14.59408,14.59408 0 0 0 14.59405,-14.59406 v -69.22823 z" />
</svg>
