<?xml version="1.0" encoding="UTF-8" standalone="no"?>
<svg
   xmlns:dc="http://purl.org/dc/elements/1.1/"
   xmlns:cc="http://creativecommons.org/ns#"
   xmlns:rdf="http://www.w3.org/1999/02/22-rdf-syntax-ns#"
   xmlns:svg="http://www.w3.org/2000/svg"
   xmlns="http://www.w3.org/2000/svg"
   version="1.1"
   viewBox="0 0 1025.1124 733.98591"
   height="194.20044mm"
   width="271.22766mm"
   data-name="Layer 1"
   id="aa7bae02-e79e-4d6b-a496-aba15f39787c">
  <metadata
     id="metadata4591">
    <rdf:RDF>
      <cc:Work
         rdf:about="">
        <dc:format>image/svg+xml</dc:format>
        <dc:type
           rdf:resource="http://purl.org/dc/dcmitype/StillImage" />
        <dc:title>developer activity</dc:title>
      </cc:Work>
    </rdf:RDF>
  </metadata>
  <defs
     id="defs4589" />
  <title
     id="title4172">developer activity</title>
  <path
     id="path5398"
     d="m 537.53752,682.92941 c 0,0 -95.2672,-64.03205 -204.59021,20.30284 -109.32301,84.3349 -232.70183,-34.35866 -232.70183,-34.35866 0,0 -135.872887,-117.13179 -24.98812,-168.66978 110.88477,-51.53799 42.16745,-173.35506 42.16745,-173.35506 0,0 -42.16745,-109.32301 56.22326,-126.50234 98.39071,-17.17933 62.47029,-114.008294 62.47029,-114.008294 0,0 -6.24703,-82.7731299 109.32301,-78.0878599 115.57004,4.6852699 76.52611,85.8966499 165.54628,62.4702899 89.02016,-23.42636 57.78501,-68.7173199 151.49045,-53.09975 93.70544,15.61758 126.50234,109.323014 126.50234,109.323014 0,0 54.66151,176.47858 120.25536,95.2672 65.5938,-81.21138 71.8408,71.84083 78.0878,153.05221 6.247,81.21138 -43.7292,103.07598 0,143.68167 43.7292,40.60569 60.9086,106.1995 -15.6176,145.24343 -76.5261,39.04393 -93.70539,-17.17933 -126.50229,21.8646 -32.79691,39.04394 -96.82896,39.04394 -121.81707,18.74109 -24.98812,-20.30284 -68.71732,-42.16745 -98.39071,-20.30284 -29.67339,21.8646 -60.90854,24.98811 -87.45841,-1.56176 z"
     style="fill:#ffffff;fill-opacity:1;stroke:#ffffff;stroke-width:1px;stroke-linecap:butt;stroke-linejoin:miter;stroke-opacity:1" />
  <rect
     style="opacity:0.2;fill:#f9a826"
     id="rect4302"
     height="25.51"
     width="25.51"
     y="178.78908"
     x="554.37994" />
  <rect
     style="fill:#f9a826"
     id="rect4304"
     height="25.51"
     width="25.51"
     y="178.78908"
     x="589.25" />
  <rect
     style="opacity:0.2;fill:#f9a826"
     id="rect4306"
     height="25.51"
     width="25.51"
     y="178.78908"
     x="624.10999" />
  <rect
     style="opacity:0.7;fill:#f9a826"
     id="rect4308"
     height="25.51"
     width="25.51"
     y="178.78908"
     x="658.97998" />
  <rect
     style="opacity:0.4;fill:#f9a826"
     id="rect4354"
     height="25.51"
     width="25.51"
     y="211.09911"
     x="554.37994" />
  <rect
     style="opacity:0.2;fill:#f9a826"
     id="rect4356"
     height="25.51"
     width="25.51"
     y="211.09911"
     x="589.25" />
  <rect
     style="opacity:0.2;fill:#f9a826"
     id="rect4358"
     height="25.51"
     width="25.51"
     y="211.09911"
     x="624.10999" />
  <rect
     style="opacity:0.2;fill:#f9a826"
     id="rect4360"
     height="25.51"
     width="25.51"
     y="211.09911"
     x="658.97998" />
  <rect
     style="fill:#f9a826"
     id="rect4406"
     height="25.51"
     width="25.51"
     y="243.41908"
     x="554.37994" />
  <rect
     style="opacity:0.2;fill:#f9a826"
     id="rect4408"
     height="25.51"
     width="25.51"
     y="243.41908"
     x="589.25" />
  <rect
     style="opacity:0.2;fill:#f9a826"
     id="rect4410"
     height="25.51"
     width="25.51"
     y="243.41908"
     x="624.10999" />
  <rect
     style="opacity:0.2;fill:#f9a826"
     id="rect4412"
     height="25.51"
     width="25.51"
     y="243.41908"
     x="658.97998" />
  <rect
     style="opacity:0.2;fill:#f9a826"
     id="rect4458"
     height="25.51"
     width="25.51"
     y="275.7291"
     x="554.37994" />
  <rect
     style="opacity:0.2;fill:#f9a826"
     id="rect4460"
     height="25.51"
     width="25.51"
     y="275.7291"
     x="589.25" />
  <rect
     style="opacity:0.2;fill:#f9a826"
     id="rect4462"
     height="25.51"
     width="25.51"
     y="275.7291"
     x="624.10999" />
  <rect
     style="opacity:0.2;fill:#f9a826"
     id="rect4464"
     height="25.51"
     width="25.51"
     y="275.7291"
     x="658.97998" />
  <rect
     style="opacity:0.2;fill:#f9a826"
     id="rect4510"
     height="25.51"
     width="25.51"
     y="308.0491"
     x="554.37994" />
  <rect
     style="opacity:0.2;fill:#f9a826"
     id="rect4512"
     height="25.51"
     width="25.51"
     y="308.0491"
     x="589.25" />
  <rect
     style="opacity:0.2;fill:#f9a826"
     id="rect4514"
     height="25.51"
     width="25.51"
     y="308.0491"
     x="624.10999" />
  <rect
     style="opacity:0.2;fill:#f9a826"
     id="rect4516"
     height="25.51"
     width="25.51"
     y="308.0491"
     x="658.97998" />
  <rect
     style="opacity:0.2;fill:#f9a826"
     id="rect4518"
     height="25.51"
     width="25.51"
     y="308.0491"
     x="693.83997" />
  <rect
     style="opacity:0.2;fill:#f9a826"
     id="rect4520"
     height="25.51"
     width="25.51"
     y="308.0491"
     x="728.70996" />
  <rect
     style="opacity:0.2;fill:#f9a826"
     id="rect4522"
     height="25.51"
     width="25.51"
     y="308.0491"
     x="763.57996" />
  <circle
     style="fill:#767d9f"
     id="circle4530"
     r="34.869999"
     cy="367.02914"
     cx="625.48999" />
  <path
     style="opacity:0.894;fill:#ffb380;fill-opacity:1"
     id="path4532"
     d="m 623.68,322.66911 q 5.22,22.78 8.86,45.9 c 0.73,4.58 1.38,9.41 -0.28,13.74 -1.39,3.61 -4.22,6.43 -6.44,9.59 -2.22,3.16 -3.9,7.21 -2.55,10.83 1.35,3.62 5.29,5.6 9.05,6.62 10.76,2.9 22.23,0.79 32.94,-2.35 a 53.29,53.29 0 0 0 13.81,-5.72 c 4.54,-2.88 8.26,-6.88 11.68,-11 15.61,-18.93 25.83,-41.65 35.45,-64.23 a 39.12,39.12 0 0 1 -33.11,-13.34 c -3.94,-4.63 -6.83,-11.08 -4.61,-16.74 -6.51,3.57 -14.24,3.81 -21.25,6.25 a 75.49,75.49 0 0 0 -12.5,6.15 q -7.18,4.15 -14.28,8.46 c -5.41,3.26 -10.48,6.16 -16.77,5.84 z" />
  <path
     style="fill:#767d9f"
     id="path4534"
     d="m 696.61,348.84911 c -6.11,11.89 -14.06,23.32 -25.41,30.4 -11.35,7.08 -26.63,9 -38,2 -5.6,-3.42 -9.84,-8.62 -14.73,-13 -4.89,-4.38 -11,-8.13 -17.57,-7.56 -7.24,0.63 -12.91,6.28 -17.76,11.69 -7.36,8.22 -14.47,16.79 -19.68,26.52 -10,18.7 -12.37,40.56 -11.93,61.76 0.44,21.2 3.51,42.29 3.58,63.49 0.1,26.08 -4.32,51.95 -8.79,77.64 41.1,-5.06 82.25,6 123.44,10.19 26.36,2.71 52.92,2.65 79.42,2.58 4.66,0 9.62,-0.12 13.5,-2.7 a 18.2,18.2 0 0 0 5.59,-6.64 c 3.66,-6.75 5.13,-14.45 6.15,-22.06 2.59,-19.22 2.67,-38.68 2.74,-58.08 0.18,-47 0.35,-94.17 -5.62,-140.8 -1.47,-11.47 -3.35,-23 -7.75,-33.73 -4.4,-10.73 -11.58,-20.6 -21.62,-26.35 -6.45,-3.7 -21.4,-10.14 -29,-6.41 -8.53,4.16 -12.47,23.1 -16.56,31.06 z" />
  <path
     style="fill:#4c4981"
     id="path4536"
     d="m 699.65,481.56911 c -1.55,-29 -7.86,-59.95 5.57,-85.69 3.3,-6.32 -8.54,-14.21 -4.88,-20.33 a 92.08,92.08 0 0 0 10.06,-23.93 c 0.76,-2.89 1.37,-5.95 0.65,-8.85 -1.33,-5.29 -6.56,-8.44 -11,-11.66 -4.9,-3.56 -7.42,-14.41 -9,-20.28 -1.58,-5.87 12.57,1.2 18.26,-0.89 7.9,-2.89 17.94,-1.07 25.82,1.86 4.4,1.62 9.18,1.76 13.87,1.88 9.11,0.24 18.25,0.47 27.29,-0.65 4.06,-0.51 8.13,-1.28 12.21,-1.05 10.41,0.59 19.46,7.71 25.62,16.13 6.16,8.42 10.08,18.23 15.13,27.35 4.21,7.6 9.23,14.78 12.82,22.69 3.18,7 5.19,14.52 7.18,22 l 5.13,19.19 a 25.58,25.58 0 0 1 1.26,8.51 c -0.26,3.07 -1.62,5.93 -3,8.66 a 164.12,164.12 0 0 1 -18.67,28.49 c -10.79,13.23 -23.89,25.16 -30.3,41 -2.5,6.17 -3.89,12.73 -5.16,19.27 a 707.94,707.94 0 0 0 -10.9,79.15 174.2,174.2 0 0 0 -36.52,-12.21 177.61,177.61 0 0 0 -19,-3 c -5.59,-0.58 -12.8,0.52 -18.12,-1 -8.9,-2.53 -9.88,-17.58 -11.23,-25.46 -2.16,-12.55 -2.59,-25.32 -2.67,-38 -0.1,-14.42 0.35,-28.81 -0.42,-43.18 z" />
  <path
     style="fill:#4c4981"
     id="path4538"
     d="m 504.2,427.33911 c 4.21,24 8.85,48.07 18,70.62 -0.23,0.22 -0.46,0.42 -0.69,0.62 -0.81,0.69 -1.65,1.34 -2.53,2 -2.05,1.44 -4.3,2.66 -6,4.54 a 8,8 0 0 0 -1.5,2.45 5.48,5.48 0 0 0 0,4.47 c -4.77,2.11 -10.31,1.46 -15.66,1.26 -4.61,-0.17 -9.08,0 -12.78,2.53 -5.14,3.54 -6.69,10.34 -7.52,16.52 q -0.46,3.38 -0.79,6.77 -0.32,3.15 -0.52,6.32 a 188.61,188.61 0 0 0 -0.19,21 q 0.08,1.92 0.21,3.84 c -16.34,-0.39 -31.23,-8.91 -45.32,-17.19 -3.22,-1.89 -6.54,-3.88 -8.63,-7 a 15.8,15.8 0 0 1 -2.31,-10.29 c 0,-0.51 0.09,-1 0.16,-1.52 a 41.58,41.58 0 0 1 2.29,-8.68 107.2,107.2 0 0 1 19.19,-32.65 c 3.58,-4.18 7.61,-8.27 9.28,-13.52 0.73,-2.29 1,-4.72 1.74,-7 3.32,-9.88 15.3,-14.55 19.4,-24.14 1,-2.29 1.46,-4.8 2.7,-7 a 17.63,17.63 0 0 1 4.25,-4.75 c 0.73,-0.61 1.49,-1.2 2.24,-1.79 q 10.54,-8.26 20.31,-17.45 1.82,-1.71 3.6,-3.46 a 59.48,59.48 0 0 0 1.07,13.5 z" />
  <path
     style="fill:#4c4981"
     id="path4540"
     d="m 604.97,356.35911 c -1.44,1.52 -3,2.95 -4.53,4.37 l -0.41,0.37 -1.62,1.5 a 39,39 0 0 0 -7.55,8.79 l -0.17,0.28 c -5.1,9.13 -3.21,20.37 -1.79,30.74 a 261.55,261.55 0 0 1 2.37,39 c -0.26,18 -2.38,35.88 -2.42,53.86 0,4.08 0.09,8.15 0.27,12.23 0.29,6.63 0.79,13.25 1.39,19.87 0.65,7.26 1.43,14.51 2.16,21.76 0.58,5.61 1.13,11.21 1.59,16.81 0.23,2.9 0.45,5.79 0.63,8.69 0.21,3.4 0.38,6.81 0.48,10.21 v 0 c 0.07,2.16 0.11,4.31 0.11,6.47 0,1.23 0,2.45 0,3.67 q 0,3.51 -0.19,7 -0.2,4.49 -0.61,9 c -0.31,3.27 -0.86,6.84 -3.16,9.14 -0.14,0.14 -0.29,0.27 -0.44,0.4 l -3.24,-0.4 a 332.72,332.72 0 0 0 -67.3,-1.2 c 0.49,-3.38 0.94,-6.75 1.38,-10.14 0.2,-1.6 0.4,-3.21 0.59,-4.82 q 0.33,-2.76 0.63,-5.52 c 0.23,-2 0.44,-4 0.64,-6 q 0.78,-7.73 1.37,-15.47 0.87,-11.29 1.32,-22.62 0.22,-5.41 0.34,-10.83 0.17,-6.72 0.16,-13.45 0,-6.54 -0.11,-13.1 c 0,-1.44 -0.06,-2.88 -0.18,-4.31 a 27.35,27.35 0 0 0 -0.53,-3.83 49.87,49.87 0 0 0 -3,-8.48 c -0.22,-0.52 -0.43,-1 -0.64,-1.55 -0.12,-0.27 -0.23,-0.55 -0.34,-0.82 5.76,-5.13 9.86,-12 13.8,-18.76 6.39,-10.89 12.93,-22.26 14,-34.84 1.07,-12.58 -5.18,-26.71 -17.2,-30.55 -3.27,-1 -6.73,-1.28 -10.1,-1.87 -3.18,-0.56 -9.81,-1.83 -13.49,-4.11 q -3,3.08 -6,6.05 a 22.15,22.15 0 0 1 2.17,-8.71 l 1.42,0.07 a 2.71,2.71 0 0 1 -0.16,-1 c 0,-1.07 0.74,-2.28 2.32,-3.62 4.71,-4 12.12,-4.89 15.09,-10.3 1.24,-2.25 1.45,-4.93 2.45,-7.29 2.87,-6.73 11.11,-9.21 16.07,-14.59 4.96,-5.38 6.2,-13 10.21,-19 a 28.62,28.62 0 0 1 12,-10 c 0.4,-0.19 0.81,-0.38 1.22,-0.55 8.3,-3.55 18.16,-4.36 26.76,-4.34 3.34,0 12,0.1 16.24,1.79 a 5.32,5.32 0 0 1 1.85,1.13 c 4.52,4.92 -2.51,15.31 -5.85,18.87 z" />
  <path
     style="fill:#4c4981"
     id="path4542"
     d="m 505.69,404.48911 a 60.88,60.88 0 0 1 46.74,4.87 c 7.2,4 13.66,9.58 17.62,16.78 5.95,10.8 5.69,23.82 5.27,36.15 -0.21,6.17 -0.48,12.56 -3.2,18.1 -3.15,6.41 -9.09,10.81 -15.15,14.41 a 42.24,42.24 0 0 1 -12.32,5.33 c -6.72,1.46 -13.7,0.22 -20.47,-1 -7.36,-1.36 -15.26,-3 -20.37,-8.48 -3,-3.18 -4.64,-7.31 -6.26,-11.35 q -3.49,-8.75 -7,-17.48 c -4.05,-10.11 -5.42,-18.52 -0.07,-28.37 2.43,-4.49 5.4,-8.69 7.8,-13.21 1.2,-2.3 5.5,-15.16 7.41,-15.75 z" />
  <path
     style="fill:#6f916f"
     id="path4544"
     d="m 925.97,577.35911 v 29.9 a 167.3,167.3 0 0 1 -64.73,12.8 H 591.55 c -0.14,0.14 -0.29,0.27 -0.44,0.4 l -3.24,-0.4 H 108.14 c -40.25,0 -77.55,-10.86 -108.14,-29.36 v -45.65 l 230.72,-26.63 h 0.18 l 134.36,11.38 34.77,3 18.06,1.53 37.38,3.17 19.23,1.63 28,2.38 3.94,0.33 20.18,1.71 27.38,2.25 38.5,3.26 64.18,5.45 45.15,3.83 74.14,6.29 14.1,1.19 1.52,0.13 1.32,0.11 18.62,1.58 20.44,1.74 2.37,0.2 z" />
  <polygon
     transform="translate(-109.03,3.1391061)"
     style="fill:#9c9ca1"
     id="polygon4546"
     points="764,573.12 474.86,523.77 463.65,580.46 596.19,596.33 637,601.44 749.26,579.33 " />
  <path
     style="fill:#9c9ca1"
     id="path4548"
     d="m 505.3,601.73911 144.86,-27.23 a 5,5 0 0 1 5.94,4.93 v 0 a 5,5 0 0 1 -4.09,4.93 l -141.47,26.49 z" />
  <path
     style="fill:#ae6e79"
     id="path4550"
     d="m 568.14,516.10911 c 4.51,-0.42 9.08,-1.13 13.14,-3.13 5,-2.49 8.89,-6.78 13.52,-9.94 10.18,-7 23.8,-7.94 35.47,-3.92 11.67,4.02 21.41,12.63 28.23,22.91 4.53,6.85 7.93,15.59 4.73,23.15 a 30.51,30.51 0 0 1 -4.12,6.44 l -8.34,10.9 a 29,29 0 0 1 -5.66,6.09 c -3.12,2.27 -7,3.2 -10.82,3.76 -10.15,1.48 -20.48,0.64 -30.71,1.32 -17.57,1.17 -34.73,6.83 -52.34,6.64 -10.12,-0.11 -20.11,-2.15 -30,-4.19 l -43.77,-9 c -7.62,-1.56 -16.23,-3.84 -19.82,-10.75 -1.61,-3.11 -1.91,-6.71 -2.1,-10.21 -0.52,-9.64 0,-20.36 6.68,-27.31 6.28,-6.52 16.21,-8.58 23.71,-13.4 9.18,-5.91 12.21,-4 21.89,0.44 a 120,120 0 0 0 60.31,10.2 z" />
  <path
     style="opacity:0.62599996;fill:#ffb380"
     id="path4552"
     d="m 568.14,516.10911 c 4.51,-0.42 9.08,-1.13 13.14,-3.13 5,-2.49 8.89,-6.78 13.52,-9.94 10.18,-7 23.8,-7.94 35.47,-3.92 11.67,4.02 21.41,12.63 28.23,22.91 4.53,6.85 7.93,15.59 4.73,23.15 a 30.51,30.51 0 0 1 -4.12,6.44 l -8.34,10.9 a 29,29 0 0 1 -5.66,6.09 c -3.12,2.27 -7,3.2 -10.82,3.76 -10.15,1.48 -20.48,0.64 -30.71,1.32 -17.57,1.17 -34.73,6.83 -52.34,6.64 -10.12,-0.11 -20.11,-2.15 -30,-4.19 l -43.77,-9 c -7.62,-1.56 -16.23,-3.84 -19.82,-10.75 -1.61,-3.11 -1.91,-6.71 -2.1,-10.21 -0.52,-9.64 0,-20.36 6.68,-27.31 6.28,-6.52 16.21,-8.58 23.71,-13.4 9.18,-5.91 12.21,-4 21.89,0.44 a 120,120 0 0 0 60.31,10.2 z" />
  <path
     style="fill:#ffb380;fill-opacity:1"
     id="path4554"
     d="m 743.91,502.39911 c -12.28,4.75 -24.63,9.52 -37.49,12.35 -21.56,4.75 -44.12,4 -65.51,9.43 -11.3,2.88 -22.53,7.52 -34.14,6.58 -5.19,-0.42 -10.2,-2 -15.25,-3.2 -28.37,-7 -60.62,-4.73 -83.66,13.27 -7.88,6.15 -14.33,13.82 -20.18,22 a 14.7,14.7 0 0 0 5.91,21.88 86.62,86.62 0 0 0 28.38,7.57 c 13.13,1.16 26.32,-0.7 39.38,-2.56 19.38,-2.75 38.77,-5.51 58.1,-8.6 6.94,-1.11 13.88,-2.26 20.86,-3.14 50.23,-6.35 101.37,1.37 151.73,-3.93 5.09,-0.54 10.27,-1.24 14.9,-3.41 11.72,-5.5 17.52,-20 15.1,-32.74 -2.42,-12.74 -11.76,-23.33 -23,-29.83 -9.42,-5.47 -19.58,-7.68 -30.07,-10 -9.74,-2.27 -15.68,0.73 -25.06,4.33 z" />
  <path
     style="opacity:0.1"
     id="path4556"
     d="m 851.64,426.23911 c 5.54,7.26 6.72,17 6.12,26.09 -0.6,9.09 -2.76,18.08 -3.08,27.21 -0.44,12.52 2.58,25 2.07,37.48 -0.36,8.73 -2.43,17.29 -4.88,25.67 -2.89,9.89 -7.07,20.52 -16.2,25.27 -12.12,6.31 -37.54,2.76 -50.29,7.7 1.16,-7.23 12.28,-17.7 13.44,-24.93 0.8,-5 1.61,-10.14 0.75,-15.15 -1.1,-6.39 -4.85,-12.06 -9.3,-16.78 -7.08,-7.51 -16.32,-13.16 -26.47,-15 -10.15,-1.84 -35,-0.33 -43.12,6.08 -1,-6.62 17.6,-13 24.14,-14.43 3.26,-0.73 7,-0.32 9.61,-2.39 5,-3.92 1.37,-11.73 1.61,-18 0.19,-5 3.11,-9.58 3.7,-14.58 1,-8 -4.22,-16.15 -2.17,-24 0.76,-2.9 2.45,-5.45 3.62,-8.21 3.56,-8.45 2,-18.09 0.1,-27.07 -1.18,-5.64 -2.33,-12 0.81,-16.81 2.91,-4.49 11.17,11.5 16.46,10.76 17.47,-2.45 33.28,-15.4 47.39,-4.8 7.19,5.4 8.13,11 11,18.71 2.79,7.34 10.02,11.1 14.69,17.18 z" />
  <path
     style="fill:#4c4981"
     id="path4558"
     d="m 854.64,426.23911 c 5.54,7.26 6.72,17 6.12,26.09 -0.6,9.09 -2.76,18.08 -3.08,27.21 -0.44,12.52 2.58,25 2.07,37.48 -0.36,8.73 -2.43,17.29 -4.88,25.67 -2.89,9.89 -7.07,20.52 -16.2,25.27 -12.12,6.31 -37.54,2.76 -50.29,7.7 1.16,-7.23 12.28,-17.7 13.44,-24.93 0.8,-5 1.61,-10.14 0.75,-15.15 -1.1,-6.39 -4.85,-12.06 -9.3,-16.78 -7.08,-7.51 -16.32,-13.16 -26.47,-15 -10.15,-1.84 -35,-0.33 -43.12,6.08 -1,-6.62 17.6,-13 24.14,-14.43 3.26,-0.73 7,-0.32 9.61,-2.39 5,-3.92 1.37,-11.73 1.61,-18 0.19,-5 3.11,-9.58 3.7,-14.58 1,-8 -4.22,-16.15 -2.17,-24 0.76,-2.9 2.45,-5.45 3.62,-8.21 3.56,-8.45 2,-18.09 0.1,-27.07 -1.18,-5.64 -2.33,-12 0.81,-16.81 2.91,-4.49 8.6,-6.19 13.89,-6.94 a 68.42,68.42 0 0 1 50,12.9 c 7.19,5.4 8.13,11 11,18.71 2.75,7.34 9.98,11.1 14.65,17.18 z" />
  <path
     style="fill:#9c9ca1"
     id="path4560"
     d="m 192.97,378.85911 54.37,200.94 a 12.55,12.55 0 0 0 10.91,9.21 l 244.72,23.51 a 12.54,12.54 0 0 0 13.38,-15.48 l -59.54,-242.38 a 12.54,12.54 0 0 0 -13.12,-9.51 l -239.59,17.92 a 12.54,12.54 0 0 0 -11.13,15.79 z" />
  <ellipse
     style="fill:#ffffff"
     id="ellipse4562"
     ry="27.25"
     rx="26.9"
     cy="390.81912"
     cx="678.07996" />
  <path
     style="fill:#ffffff"
     id="path4564"
     d="m 700.17,341.10911 c 0,0 5.67,16.86 -11.06,23.95 l -2.14,3.74 10.48,10.34 c 0,0 12.92,-23.57 11.52,-31.94 0,0 -2,-8.5 -8.8,-6.09 z" />
  <circle
     style="fill:#f9a826"
     id="circle4566"
     r="25.940001"
     cy="392.12912"
     cx="681.16998" />
  <path
     style="fill:#f9a826"
     id="path4568"
     d="m 709.1,351.02911 -4.12,-6.8 -6,-0.85 c 1.28,-22.39 -4.53,-29.06 -4.53,-29.06 l -1.35,-0.13 -5.88,-0.57 -11.06,-11.48 v -3.26 c 15.54,1.85 24.13,9.23 28.77,17.88 8.2,15.18 4.17,34.27 4.17,34.27 z" />
  <path
     style="opacity:0.1;stroke:#4c4981;stroke-miterlimit:10"
     id="path4570"
     stroke-miterlimit="10"
     d="m 693.15,310.06911 v 4.12 l -5.88,-0.57 -11.06,-11.48 c 0,0 17.11,3.83 16.94,7.93 z" />
  <path
     style="opacity:0.1;stroke:#4c4981;stroke-miterlimit:10"
     id="path4572"
     stroke-miterlimit="10"
     d="m 709.1,351.02911 -4.12,-6.8 v -27.43 c 8.15,15.14 4.12,34.23 4.12,34.23 z" />
  <ellipse
     style="fill:#ffffff"
     id="ellipse4574"
     transform="rotate(-30)"
     ry="26.32"
     rx="14.43"
     cy="639.12659"
     cx="347.00272" />
  <path
     style="fill:#f9a826"
     id="path4576"
     d="m 623.97,377.79911 c 7.27,12.59 16.19,21 9.29,25 -6.9,4 -27,2 -34.27,-10.6 -7.27,-12.6 -0.67,-30 6.23,-34 6.9,-4 11.47,6.98 18.75,19.6 z" />
  <path
     style="opacity:0.1"
     id="path4578"
     d="m 688.7,287.09911 c 0,40.23 -27.53,79 -67.76,79 a 72.85,72.85 0 0 1 0,-145.7 c 40.23,0.04 67.76,26.46 67.76,66.7 z" />
  <circle
     style="fill:#ffb380"
     id="circle4580"
     r="72.849998"
     cy="291.28909"
     cx="620.93994" />
  <path
     style="fill:#241c1c"
     id="path4582"
     d="m 614.54,259.00911 c 8.67,3.19 13.8,12.15 21.58,17.14 11,7 25.32,5.19 37.88,1.73 7,-1.91 14.32,-4.24 21.21,-2.12 a 6,6 0 0 0 3.23,0.46 c 1.5,-0.43 2.24,-2.09 2.73,-3.57 8.52,-25.4 4.69,-54.17 -8.17,-77.67 -3.32,-6.06 -7.3,-11.92 -12.78,-16.13 -4.32,-3.31 -9.4,-5.48 -14.52,-7.33 a 145,145 0 0 0 -28.88,-7.13 17.94,17.94 0 0 0 -5.27,-0.17 c -2.41,0.39 -4.57,1.69 -6.72,2.85 a 68.78,68.78 0 0 1 -29.86,8.11 c -14,0.53 -30,-2.77 -40.79,6.21 -13,10.77 -9.76,31.78 -18.19,46.4 -5.58,9.67 -16.34,16.69 -18.11,27.7 a 25.57,25.57 0 0 0 0.63,10.07 c 4.12,16.94 20.52,30.06 38,30.37 a 14.42,14.42 0 0 0 7.76,-1.59 17.55,17.55 0 0 0 4.09,-3.89 c 11.45,-13.56 24.55,-39.4 46.18,-31.44 z" />
  <path
     style="opacity:0.1"
     id="path4584"
     d="m 701.17,265.27911 c -0.49,1.48 -1.23,3.14 -2.73,3.57 a 6,6 0 0 1 -3.23,-0.46 c -6.89,-2.12 -14.25,0.21 -21.2,2.12 -12.57,3.46 -26.92,5.31 -37.88,-1.73 -7.79,-5 -12.91,-14 -21.59,-17.14 -21.63,-8 -34.73,17.88 -46.21,31.44 a 17.55,17.55 0 0 1 -4.09,3.89 14.42,14.42 0 0 1 -7.76,1.59 c -17.42,-0.31 -33.83,-13.43 -38,-30.37 -0.23,-1 -0.43,-2 -0.58,-3 0,0.09 0,0.17 -0.05,0.26 a 25.57,25.57 0 0 0 0.63,10.07 c 4.12,16.94 20.53,30.06 38,30.37 a 14.42,14.42 0 0 0 7.76,-1.59 17.55,17.55 0 0 0 4.09,-3.89 c 11.48,-13.56 24.58,-39.4 46.21,-31.44 8.68,3.19 13.8,12.15 21.59,17.14 11,7 25.31,5.19 37.88,1.73 7,-1.91 14.31,-4.24 21.2,-2.12 a 6,6 0 0 0 3.23,0.46 c 1.5,-0.43 2.24,-2.09 2.73,-3.57 a 90.29,90.29 0 0 0 4.48,-32.26 88.8,88.8 0 0 1 -4.48,24.93 z" />
</svg>
